<?xml version="1.0" standalone="no"?>
<!DOCTYPE svg PUBLIC "-//W3C//DTD SVG 20010904//EN"
 "http://www.w3.org/TR/2001/REC-SVG-20010904/DTD/svg10.dtd">
<svg version="1.0" xmlns="http://www.w3.org/2000/svg"
 width="150.000000pt" height="150.000000pt" viewBox="0 0 150.000000 150.000000"
 preserveAspectRatio="xMidYMid meet">

<g transform="translate(0.000000,150.000000) scale(0.100000,-0.100000)"
fill="#000000" stroke="none">
<path d="M0 750 l0 -750 750 0 750 0 0 750 0 750 -750 0 -750 0 0 -750z m679
608 c13 -40 26 -79 28 -86 4 -9 -1 -10 -22 -2 -34 13 -35 13 -35 -5 0 -35 -17
-10 -41 60 -14 41 -22 75 -17 75 5 0 21 -8 35 -17 l26 -18 -6 33 c-12 59 9 33
32 -40z m-129 -8 c0 -5 -5 -10 -11 -10 -21 0 -4 -45 19 -48 18 -3 21 -8 16
-28 -5 -19 -3 -23 10 -18 9 3 16 2 16 -4 0 -9 -59 -38 -63 -31 -27 48 -57 109
-57 116 0 11 37 31 58 32 6 1 12 -3 12 -9z m-105 -51 c4 -5 -1 -19 -10 -29
-10 -11 -15 -26 -11 -36 6 -16 8 -16 25 0 22 20 40 4 21 -18 -6 -8 -8 -25 -5
-38 4 -16 0 -26 -13 -35 -17 -10 -24 -5 -57 38 -20 27 -38 55 -39 63 0 8 15
25 34 39 40 29 46 31 55 16z m756 -40 c59 -33 91 -96 96 -192 6 -107 0 -115
-129 -171 -55 -24 -58 -26 -73 -80 -9 -31 -21 -58 -26 -62 -6 -3 -8 -17 -5
-30 5 -19 1 -26 -21 -38 -16 -8 -37 -24 -47 -35 -11 -12 -34 -31 -53 -42 -32
-20 -33 -20 -75 -1 -24 10 -52 29 -63 41 -18 21 -18 24 -4 34 9 7 14 19 11 27
-4 12 -2 13 9 3 8 -6 37 -19 66 -28 50 -16 53 -16 80 1 15 11 37 24 48 30 12
7 21 24 23 45 2 19 8 39 14 46 26 32 -54 71 -151 75 -66 2 -71 4 -71 24 0 13
5 26 11 30 7 4 9 22 6 45 -6 46 14 82 34 62 33 -33 69 -3 69 57 0 23 -5 33
-20 37 -21 6 -21 26 3 87 25 67 174 87 268 35z m-400 -56 c9 -32 19 -66 24
-75 5 -13 3 -18 -8 -18 -8 0 -18 7 -21 16 -8 20 -21 10 -21 -14 0 -9 -6 -17
-14 -17 -9 0 -25 28 -39 68 -21 58 -23 70 -11 78 22 14 25 11 38 -31 6 -22 17
-40 22 -40 11 0 10 7 -7 68 -4 15 -2 22 8 22 8 0 20 -23 29 -57z m-481 -12 c0
-6 -5 -13 -11 -16 -7 -5 -4 -13 7 -26 13 -14 21 -16 35 -8 20 10 23 6 20 -23
-1 -10 3 -18 8 -18 6 0 11 5 11 11 0 5 5 7 11 3 7 -4 1 -16 -16 -34 l-27 -28
-54 51 -54 51 22 23 c22 23 48 31 48 14z m346 -9 c6 -4 13 -17 16 -29 5 -19 2
-23 -18 -23 -18 0 -24 5 -24 22 0 21 0 21 15 2 8 -10 15 -14 15 -8 0 6 -6 17
-14 23 -10 8 -16 8 -25 -3 -16 -19 -4 -63 22 -81 24 -17 41 -10 34 15 -5 18
15 35 27 23 20 -20 -13 -73 -44 -73 -10 0 -32 13 -49 29 -48 45 -40 111 14
111 11 0 25 -4 31 -8z m272 -82 c2 -14 -4 -34 -11 -45 -13 -16 -17 -17 -31 -6
-31 25 -12 86 24 79 8 -2 16 -14 18 -28z m-371 -7 c2 -6 -4 -13 -14 -16 -13
-3 -10 -5 8 -6 31 -1 49 -18 49 -47 0 -20 -21 -32 -57 -35 -19 -1 -11 19 9 26
22 6 21 7 -9 16 -58 17 -71 84 -16 77 14 -2 28 -8 30 -15z m-357 -28 c-9 -11
-16 -13 -23 -6 -7 7 -6 15 3 26 9 11 16 13 23 6 7 -7 6 -15 -3 -26z m79 -29
c39 -26 47 -37 37 -45 -18 -15 -120 51 -104 67 15 15 8 17 67 -22z m210 -22
c23 -26 41 -51 41 -55 0 -13 -38 -49 -51 -49 -5 0 -31 20 -57 44 -42 40 -45
47 -32 60 14 14 19 12 54 -19 38 -34 56 -43 56 -28 0 4 -19 27 -42 50 -28 29
-37 43 -26 43 9 0 35 -21 57 -46z m-315 -15 c6 -12 31 -30 56 -39 37 -15 45
-22 42 -41 -1 -12 -4 -25 -6 -27 -3 -2 -33 9 -67 24 -44 20 -64 25 -67 16 -5
-17 -22 -15 -22 3 0 21 40 98 47 91 3 -3 11 -15 17 -27z m213 -74 c28 -8 53
-22 56 -29 6 -16 -14 -67 -24 -63 -8 2 -91 107 -86 107 2 0 26 -7 54 -15z
m-52 -79 c14 -14 34 -26 46 -28 31 -4 37 -28 7 -28 -16 0 -19 -3 -10 -8 11 -7
8 -42 -4 -42 -2 0 -33 14 -69 32 -55 27 -64 35 -59 53 16 51 51 59 89 21z
m535 4 c0 -11 -6 -20 -13 -20 -19 0 -27 10 -20 26 8 21 33 17 33 -6z m45 10
c3 5 14 10 24 10 22 0 36 -51 18 -62 -22 -14 -49 -8 -54 12 -3 11 -9 17 -14
14 -5 -3 -9 5 -9 17 0 17 3 19 14 10 10 -8 16 -9 21 -1z m75 -21 c0 -5 -4 -9
-10 -9 -5 0 -10 7 -10 16 0 8 5 12 10 9 6 -3 10 -10 10 -16z m-312 -39 c-5
-32 2 -36 33 -20 15 9 19 7 19 -5 0 -22 -29 -30 -53 -15 -15 9 -22 10 -25 1
-2 -6 -8 -11 -14 -11 -7 0 -7 5 1 13 6 8 8 16 5 20 -8 8 15 47 27 47 7 0 9
-12 7 -30z m-98 -11 c0 -11 -4 -17 -10 -14 -5 3 -10 13 -10 21 0 8 5 14 10 14
6 0 10 -9 10 -21z m200 -3 c0 -19 -4 -23 -20 -19 -23 6 -24 9 -7 28 18 21 27
18 27 -9z m-159 -11 c-1 -15 -24 -12 -29 3 -3 9 2 13 12 10 10 -1 17 -7 17
-13z m280 -5 c-24 -11 -49 -20 -57 -20 -17 0 -18 -17 -1 -23 6 -2 9 -8 5 -12
-10 -10 -38 13 -38 32 0 8 5 11 10 8 6 -3 10 -1 10 5 0 6 5 8 10 5 6 -3 10 -1
10 5 0 7 7 10 15 6 8 -3 15 -2 15 2 0 4 15 9 33 10 32 2 31 2 -12 -18z m-367
-1 c4 6 20 2 41 -10 34 -20 46 -39 24 -39 -5 0 -7 4 -4 10 3 6 -1 7 -10 4 -8
-4 -22 -1 -30 6 -9 7 -17 11 -20 8 -7 -7 7 -48 17 -48 5 0 6 -4 3 -10 -3 -5
-11 -10 -16 -10 -6 0 -8 4 -5 9 3 5 -1 12 -10 15 -8 3 -13 10 -10 15 3 5 -1
14 -9 21 -13 11 -14 10 -9 -4 3 -9 1 -16 -5 -16 -14 0 -14 16 0 41 8 16 14 18
24 9 9 -7 15 -7 19 -1z m486 -15 c0 -8 -4 -12 -10 -9 -5 3 -10 10 -10 16 0 5
5 9 10 9 6 0 10 -7 10 -16z m-20 -20 c0 -21 -17 -17 -23 5 -3 14 -1 18 9 14 8
-3 14 -11 14 -19z m140 -27 c25 -17 47 -32 49 -34 3 -2 0 -8 -7 -15 -8 -8 -22
-1 -53 26 -23 20 -49 36 -56 36 -14 0 -17 12 -7 23 8 7 11 6 74 -36z m-434 9
c6 -25 -11 -102 -25 -111 -5 -2 -11 2 -15 10 -3 8 -1 15 4 15 6 0 10 21 10 46
0 50 -6 52 -65 29 -17 -7 -16 -5 4 13 33 30 79 29 87 -2z m264 4 c0 -11 -4
-20 -9 -20 -5 0 -11 9 -14 20 -3 13 0 20 9 20 8 0 14 -9 14 -20z m-80 -5 c0
-8 -4 -15 -10 -15 -5 0 -10 7 -10 15 0 8 5 15 10 15 6 0 10 -7 10 -15z m48 -8
c2 -12 -3 -17 -17 -17 -12 0 -21 6 -21 13 0 31 32 34 38 4z m-696 -17 c21 -22
16 -40 -11 -40 -39 0 -53 -84 -24 -145 13 -27 26 -38 55 -46 37 -9 38 -11 38
-54 0 -68 -32 -90 -88 -61 -94 49 -142 182 -108 299 9 31 24 61 34 67 25 15
81 4 104 -20z m253 10 c3 -5 1 -10 -4 -10 -6 0 -11 5 -11 10 0 6 2 10 4 10 3
0 8 -4 11 -10z m25 -26 c0 -12 -6 -15 -21 -11 -13 3 -22 0 -26 -10 -3 -9 -29
-26 -58 -38 -65 -29 -105 -75 -105 -121 0 -19 -4 -34 -10 -34 -13 0 -11 -8
-16 84 -2 44 -9 85 -15 92 -7 8 -7 14 1 19 5 3 13 -1 16 -9 9 -24 65 -20 135
9 34 13 65 22 70 20 4 -3 10 -1 14 5 9 15 15 12 15 -6z m96 -35 c-13 -61 -30
-68 -34 -15 -4 49 3 66 27 66 18 0 18 -3 7 -51z m-50 -6 c-1 -43 -13 -73 -30
-73 -12 0 -6 108 7 113 22 9 23 7 23 -40z m-52 -30 c-2 -27 -3 -51 -4 -55 0
-5 -7 -8 -15 -8 -12 0 -15 13 -15 55 0 47 3 55 19 55 16 0 18 -6 15 -47z m694
35 c-3 -7 -13 -15 -24 -17 -16 -3 -17 -1 -5 13 16 19 34 21 29 4z m-203 -8 c3
-5 -1 -10 -10 -10 -9 0 -13 5 -10 10 3 6 8 10 10 10 2 0 7 -4 10 -10z m155 1
c0 -14 -66 -23 -107 -14 -37 8 -37 8 22 14 33 3 66 6 73 7 6 1 12 -2 12 -7z
m-347 -35 c-18 -29 -82 -113 -96 -125 -10 -7 -17 -19 -17 -27 0 -18 -20 -28
-32 -16 -8 8 -7 15 3 25 8 8 39 50 69 95 41 62 57 79 67 70 7 -5 10 -15 6 -22z
m-359 -35 c-8 -28 -19 -49 -25 -46 -5 4 -6 12 -2 18 4 6 8 22 9 35 3 23 23 56
30 49 2 -2 -3 -27 -12 -56z m204 37 c-3 -7 -38 -31 -79 -53 -41 -22 -92 -52
-114 -67 -41 -29 -69 -35 -80 -18 -4 6 -7 36 -7 66 -1 57 9 74 42 74 12 -1 12
-3 -2 -14 -13 -9 -18 -27 -18 -60 0 -39 3 -46 20 -46 11 0 20 5 20 10 0 6 9
10 20 10 11 0 23 7 26 15 4 8 11 15 18 15 15 0 106 49 124 66 17 17 35 18 30
2z m555 -6 c-8 -32 36 -194 60 -220 21 -23 21 -24 4 -37 -22 -16 -48 -9 -40
10 2 8 -4 43 -16 77 -23 71 -42 169 -34 180 9 16 31 8 26 -10z m-360 -22 c-3
-11 -12 -20 -19 -20 -17 0 -17 5 -3 31 13 24 29 16 22 -11z m150 -7 c6 -34 3
-53 -7 -42 -9 10 -16 79 -8 79 5 0 12 -17 15 -37z m149 15 c-13 -13 -78 -14
-112 -2 -20 7 -11 10 45 14 78 6 84 5 67 -12z m-198 -10 c9 -35 7 -48 -6 -48
-8 0 -13 14 -14 35 -1 39 11 47 20 13z m116 -26 c0 -13 -39 -46 -46 -40 -8 9
19 48 33 48 7 0 13 -4 13 -8z m89 -29 c9 -35 16 -111 12 -140 0 -7 -7 -13 -13
-13 -9 0 -13 20 -13 68 0 37 -3 79 -8 95 -4 16 -3 27 2 27 6 0 15 -17 20 -37z
m-522 -81 c-2 -11 -13 2 -30 37 -14 30 -23 59 -20 64 8 14 55 -81 50 -101z
m198 98 c-3 -5 -10 -10 -16 -10 -5 0 -9 5 -9 10 0 6 7 10 16 10 8 0 12 -4 9
-10z m250 -71 c-20 -50 -25 -56 -21 -29 6 50 29 111 39 101 4 -4 -4 -36 -18
-72z m-605 61 c0 -5 -7 -10 -16 -10 -8 0 -12 5 -9 10 3 6 10 10 16 10 5 0 9
-4 9 -10z m432 -25 c37 -8 63 -30 48 -40 -5 -3 -10 -1 -10 5 0 7 -7 10 -15 7
-8 -4 -17 -2 -20 2 -2 5 -21 12 -40 15 -19 4 -35 13 -35 20 0 21 11 26 26 11
8 -7 28 -17 46 -20z m-323 -39 c17 -33 29 -62 25 -65 -3 -3 -10 2 -15 11 -5
10 -23 32 -39 50 -32 35 -37 54 -17 61 15 5 9 12 46 -57z m411 44 c0 -5 -4
-10 -10 -10 -5 0 -10 5 -10 10 0 6 5 10 10 10 6 0 10 -4 10 -10z m-6 -62 c-1
-24 -7 -44 -14 -46 -10 -4 -11 4 -7 28 4 18 7 39 7 46 0 8 4 14 8 14 5 0 7
-19 6 -42z m56 -26 c0 -30 -18 -64 -30 -57 -6 3 -5 16 1 32 5 15 7 40 4 57 -6
29 -5 30 10 12 8 -11 15 -31 15 -44z m150 32 c0 -8 -5 -12 -10 -9 -6 4 -8 11
-5 16 9 14 15 11 15 -7z m-60 -4 c0 -5 -9 -10 -19 -10 -11 0 -23 5 -26 10 -4
6 5 10 19 10 14 0 26 -4 26 -10z m-190 -10 c0 -5 -4 -10 -10 -10 -5 0 -10 5
-10 10 0 6 5 10 10 10 6 0 10 -4 10 -10z m-140 -9 c0 -11 -39 -21 -45 -11 -2
4 -2 10 2 14 10 9 43 7 43 -3z m105 -11 c0 -15 -6 -15 -67 -3 -42 8 -22 24 25
21 29 -2 42 -8 42 -18z m-236 -9 c21 -13 5 -41 -24 -41 -26 0 -29 7 -19 34 7
18 22 20 43 7z m271 -27 c0 -9 -5 -14 -12 -12 -18 6 -21 28 -4 28 9 0 16 -7
16 -16z m255 -50 c-11 -8 -38 -19 -60 -25 -60 -15 -126 -39 -162 -59 -26 -15
-32 -16 -37 -4 -3 8 1 14 10 14 8 0 37 11 64 25 27 14 75 32 106 40 32 8 59
17 62 20 3 3 12 5 21 5 13 -1 12 -3 -4 -16z m36 -33 c-13 -24 -71 -47 -156
-62 -41 -7 -73 -19 -84 -30 -15 -17 -20 -17 -30 -6 -9 12 -2 18 41 35 29 12
87 31 128 42 41 12 79 26 85 31 16 16 26 10 16 -10z m-401 -9 c0 -13 -12 -22
-22 -16 -10 6 -1 24 13 24 5 0 9 -4 9 -8z m40 -2 c0 -5 -7 -10 -15 -10 -8 0
-15 5 -15 10 0 6 7 10 15 10 8 0 15 -4 15 -10z m44 -16 c4 -11 1 -14 -11 -12
-9 2 -18 9 -21 16 -6 18 25 15 32 -4z m-114 -24 c11 -7 7 -10 -18 -10 -20 0
-31 4 -27 10 8 13 26 13 45 0z m79 1 c9 -6 2 -10 -23 -13 -35 -4 -49 5 -23 15
19 8 31 8 46 -2z m6 -31 c-3 -5 -11 -10 -16 -10 -6 0 -7 5 -4 10 3 6 11 10 16
10 6 0 7 -4 4 -10z m51 -7 c18 -25 17 -35 -4 -31 -9 1 -31 -7 -49 -20 -33 -24
-53 -28 -53 -12 0 6 8 10 19 10 25 0 47 26 29 34 -7 3 -3 3 10 0 17 -4 22 -1
22 15 0 26 9 27 26 4z m-181 -3 c-3 -5 -13 -10 -21 -10 -8 0 -14 5 -14 10 0 6
9 10 21 10 11 0 17 -4 14 -10z m55 6 c0 -2 -9 -6 -20 -9 -11 -3 -20 -1 -20 4
0 5 9 9 20 9 11 0 20 -2 20 -4z m40 0 c0 -3 -4 -8 -10 -11 -5 -3 -10 -1 -10 4
0 6 5 11 10 11 6 0 10 -2 10 -4z m-90 -36 c0 -5 -7 -10 -16 -10 -8 0 -12 5 -9
10 3 6 10 10 16 10 5 0 9 -4 9 -10z m55 0 c-3 -5 -15 -10 -26 -10 -10 0 -19 5
-19 10 0 6 12 10 26 10 14 0 23 -4 19 -10z m42 4 c-3 -3 -12 -4 -19 -1 -8 3
-5 6 6 6 11 1 17 -2 13 -5z m-42 -35 c-4 -6 -9 -8 -12 -5 -3 2 -16 1 -29 -4
-19 -7 -24 -6 -24 5 0 10 11 15 36 15 22 0 33 -4 29 -11z"/>
<path d="M1019 1110 c-9 -5 -22 -23 -29 -40 -11 -28 -11 -34 7 -58 17 -22 27
-26 59 -24 50 4 69 22 60 57 -8 30 -49 75 -68 75 -7 0 -20 -5 -29 -10z m77
-51 c11 -22 13 -34 5 -42 -12 -12 -59 -19 -83 -11 -25 7 -23 59 2 84 25 25 52
14 76 -31z"/>
<path d="M1024 1066 c-8 -22 3 -33 18 -18 9 9 9 15 0 24 -9 9 -13 7 -18 -6z"/>
<path d="M881 994 c0 -11 3 -14 6 -6 3 7 2 16 -1 19 -3 4 -6 -2 -5 -13z"/>
<path d="M907 1003 c-10 -10 -8 -45 2 -39 11 7 21 46 12 46 -4 0 -11 -3 -14
-7z"/>
<path d="M931 984 c-14 -32 -3 -54 16 -29 14 21 18 55 5 55 -5 0 -14 -12 -21
-26z"/>
<path d="M981 978 c0 -9 -4 -25 -7 -35 -5 -17 -5 -17 6 0 6 10 9 25 7 35 -4
15 -5 15 -6 0z"/>
<path d="M1121 962 c0 -13 -13 -34 -27 -47 -31 -29 -17 -34 16 -7 16 13 21 25
17 47 -3 23 -4 24 -6 7z"/>
<path d="M890 1094 c0 -17 22 -14 28 4 2 7 -3 12 -12 12 -9 0 -16 -7 -16 -16z"/>
<path d="M400 890 c0 -5 5 -10 11 -10 5 0 7 5 4 10 -3 6 -8 10 -11 10 -2 0 -4
-4 -4 -10z"/>
<path d="M290 840 c0 -5 14 -16 30 -25 26 -14 30 -14 30 -1 0 15 -29 36 -49
36 -6 0 -11 -4 -11 -10z"/>
</g>
</svg>
